# xmcd CD database file
#
# Track frame offsets:
#	150
#	21985
#	39815
#
# Disc length: 849 seconds
#
# Revision: 0
# Processed by: cddbd v1.5.1PL0 Copyright (c) Steve Scherf et al.
# Submitted via: CDex 1.51
#
DISCID=18034f03
DTITLE=BENNIE K - サンライズ
DYEAR=1900
DGENRE=Pop
TTITLE0=サンライズ
TTITLE1=TREASURE
TTITLE2=Lost Paradise feat.TSUYOSHI
EXTD=
EXTT0=
EXTT1=
EXTT2=
PLAYORDER=
